<?xml version="1.0" encoding="utf-8"?>
<!-- Generator: Adobe Illustrator 25.4.1, SVG Export Plug-In . SVG Version: 6.00 Build 0)  -->
<svg version="1.1" id="Getac_for_video_thumbnails_copy"
	 xmlns="http://www.w3.org/2000/svg" xmlns:xlink="http://www.w3.org/1999/xlink" x="0px" y="0px" viewBox="0 0 110 61"
	 style="enable-background:new 0 0 110 61;" xml:space="preserve">
<style type="text/css">
	.st0{fill:#333333;}
	.st1{fill:#D1D2D4;}
</style>
<rect class="st0" width="110" height="61"/>
<path class="st1" d="M46.1,24.6c0,0-7.3-0.4-9.2,8.4c-0.4,1.9-1,8,6.4,8.7c2.3,0.2,4.7-0.3,6.7-1.6l1-2.7c-1.9,1.1-4,1.7-6.2,1.6
	c-3.5-0.1-4.4-2.3-4.1-4.8h11c0,0,0.9-3.5,0.1-6C50.8,25,47.8,24.6,46.1,24.6 M48.5,31.7h-7.2c0,0,1.3-4.1,4.7-4.1
	C49.1,27.6,48.6,30.8,48.5,31.7 M58.4,35.9l1.3-6.8h3.5l1-2.6h-4l0.6-3c0,0,0.2-0.6-0.5-0.5c-1.3,0.3-2.6,0.9-3.8,1.6l-0.4,2h-2.4
	l-1,2.7h2.9c0,0-1.5,7.4-1.6,8.1c-0.2,0.8-0.9,4.5,3.9,4.4c2,0,3.3-0.7,3.8-1.2l0.8-2c-0.9,0.5-1.8,0.8-2.8,0.8
	C57.7,39.4,58.1,37.6,58.4,35.9 M72.9,24.7c0,0-2.7-0.1-6.2,2.1l-1,2.7c1.9-1.1,4.1-1.8,6.3-1.9c1.4-0.1,3,0.1,2.9,1.6
	c-0.1,0.6-0.2,1.3-0.4,1.9c0,0-11.5-0.6-11.3,6.9c0,2.1,1.9,3.8,4.7,3.8c1.8,0,3.6-0.6,5-1.8h0l-0.4,2l4.2-1.3c0,0,1.7-8.4,2-9.7
	C78.7,30.1,80,24.6,72.9,24.7 M73.1,37.1c-0.5,0.7-1.7,2-3.9,2c-2.6,0-2.5-2-2.5-2c0.2-3.8,7.4-3.4,7.4-3.4
	C73.9,35.2,73.6,36.3,73.1,37.1 M27.5,31.5h4.4l0,0.1c0,0-1.1,5.2-1.1,5.5c-2,1.5-9.9,2.6-9.8-4.9c0.1-5.8,4-8.6,6.2-9.3
	c1.4-0.5,2.9-0.7,4.4-0.7c0.7,0,1.4,0,2.3,0.1l1.2-3c-1.3-0.2-2.6-0.2-3.9-0.2c-3.9,0-7.2,1.1-9.8,3.3c-3,2.4-4.7,5.9-4.8,10.1
	c0,2.6,1.1,9.4,9.6,9.5c3.6,0,6.5-1.1,8.4-3.1l1.9-9.9h-8L27.5,31.5z"/>
<path class="st1" d="M87.6,39c-3.2,0-4.5-1.7-4.4-4.3c0,0,0.1-7.3,7-7.6c0.8,0,1.6,0,2.3,0.1l1-2.4c-1.1-0.2-2.2-0.4-3.3-0.4
	c-1.6,0-10.6,0.7-11,10.5c0,0-0.5,6.3,6.9,6.7c0.6,0,3.6,0.2,6.4-1.6l1-2.7C93.5,37.4,91.3,39,87.6,39"/>
</svg>
